<?xml version="1.0" encoding="UTF-8"?>
<svg xmlns="http://www.w3.org/2000/svg" viewBox="0 0 256 256" width="256" height="256" role="img" aria-label="Favicon Nexautia con fondo blanco redondeado y borde gris claro">
  <rect x="8" y="8" width="240" height="240" rx="34" ry="34" fill="#ffffff" stroke="#d9d9d9" stroke-width="2"/>
  <g transform="translate(12.8 12.8) scale(0.9)">
  <path d="M 187 78 L 183 82 L 182 84 L 182 91 L 183 92 L 183 94 L 186 97 L 188 98 L 190 98 L 191 99 L 196 99 L 197 98 L 199 98 L 202 95 L 204 91 L 204 86 L 203 85 L 203 83 L 200 79 L 196 77 L 189 77 Z M 189 88 L 191 85 L 194 85 L 196 87 L 196 89 L 194 91 L 192 91 Z M 77 19 L 75 21 L 72 22 L 60 35 L 58 35 L 57 36 L 54 36 L 48 39 L 42 44 L 41 44 L 36 49 L 36 50 L 32 55 L 29 61 L 29 63 L 28 64 L 28 68 L 27 69 L 27 76 L 26 78 L 23 81 L 22 81 L 22 82 L 19 85 L 15 93 L 15 96 L 14 97 L 14 100 L 13 101 L 13 125 L 14 126 L 14 129 L 15 131 L 20 136 L 18 139 L 18 154 L 19 155 L 19 157 L 20 158 L 20 160 L 21 161 L 21 163 L 22 165 L 28 172 L 28 173 L 39 182 L 39 184 L 40 185 L 40 189 L 41 190 L 41 192 L 44 198 L 46 200 L 46 201 L 55 210 L 56 210 L 58 212 L 64 215 L 66 215 L 69 217 L 71 217 L 73 218 L 87 233 L 88 233 L 90 235 L 98 239 L 100 239 L 101 240 L 115 240 L 119 238 L 123 234 L 126 228 L 126 225 L 127 224 L 127 212 L 129 209 L 131 209 L 134 213 L 134 214 L 137 217 L 137 218 L 139 219 L 143 223 L 147 225 L 149 225 L 150 226 L 153 226 L 154 227 L 169 227 L 170 228 L 172 227 L 181 227 L 182 226 L 186 226 L 192 223 L 195 220 L 196 220 L 196 219 L 199 216 L 202 210 L 204 208 L 205 205 L 211 200 L 212 200 L 224 188 L 224 187 L 226 185 L 230 177 L 230 175 L 231 174 L 231 168 L 232 167 L 232 162 L 231 161 L 231 155 L 233 154 L 236 151 L 238 147 L 238 145 L 239 144 L 239 103 L 238 102 L 238 99 L 237 98 L 237 96 L 235 92 L 233 90 L 233 89 L 231 87 L 231 86 L 228 82 L 227 75 L 226 74 L 226 72 L 225 71 L 225 69 L 223 65 L 214 55 L 214 54 L 213 54 L 201 42 L 200 42 L 194 37 L 192 36 L 190 36 L 189 35 L 187 35 L 183 33 L 177 27 L 176 27 L 173 24 L 167 21 L 165 21 L 161 19 L 155 19 L 154 18 L 149 18 L 148 19 L 144 19 L 140 21 L 140 22 L 138 23 L 138 24 L 135 28 L 135 30 L 134 31 L 134 125 L 135 126 L 135 130 L 137 134 L 139 136 L 139 137 L 156 154 L 156 157 L 155 158 L 155 162 L 158 166 L 158 167 L 164 170 L 168 170 L 171 168 L 173 168 L 176 165 L 176 163 L 177 162 L 177 155 L 176 153 L 173 150 L 171 149 L 169 149 L 168 148 L 164 148 L 146 130 L 144 126 L 144 33 L 147 29 L 149 28 L 154 28 L 155 29 L 160 29 L 161 30 L 163 30 L 167 32 L 176 41 L 180 43 L 185 44 L 191 47 L 195 51 L 196 51 L 214 69 L 216 73 L 216 75 L 217 76 L 217 80 L 218 81 L 218 84 L 219 85 L 219 87 L 222 91 L 222 92 L 224 94 L 224 95 L 226 97 L 226 98 L 228 100 L 229 102 L 229 105 L 230 106 L 230 111 L 228 113 L 227 112 L 210 112 L 209 113 L 205 113 L 201 115 L 198 118 L 197 118 L 191 124 L 190 124 L 188 126 L 185 126 L 172 113 L 172 112 L 170 110 L 170 70 L 175 65 L 176 63 L 176 57 L 175 56 L 175 54 L 172 50 L 168 48 L 162 48 L 158 50 L 155 53 L 155 55 L 154 56 L 154 62 L 156 66 L 160 69 L 160 110 L 161 111 L 161 114 L 164 118 L 164 119 L 195 150 L 196 152 L 196 164 L 195 165 L 195 168 L 180 182 L 178 183 L 174 183 L 168 186 L 168 187 L 165 191 L 165 198 L 166 200 L 170 204 L 172 204 L 173 205 L 180 205 L 182 204 L 186 200 L 187 198 L 187 192 L 186 191 L 186 189 L 193 183 L 194 183 L 202 175 L 204 171 L 204 169 L 205 168 L 205 162 L 206 161 L 206 157 L 207 156 L 218 156 L 222 160 L 222 168 L 221 169 L 221 172 L 220 173 L 220 175 L 218 177 L 217 180 L 215 182 L 215 183 L 208 190 L 207 190 L 204 193 L 203 193 L 196 200 L 192 209 L 187 214 L 185 215 L 183 215 L 182 216 L 180 216 L 179 217 L 174 217 L 173 218 L 163 218 L 162 217 L 155 217 L 154 216 L 152 216 L 148 214 L 141 207 L 141 206 L 138 202 L 138 166 L 137 165 L 137 162 L 135 158 L 127 150 L 127 138 L 128 137 L 127 135 L 128 134 L 127 133 L 127 53 L 128 52 L 127 51 L 127 28 L 126 27 L 126 25 L 122 19 L 112 14 L 94 14 L 93 15 L 89 15 L 88 16 L 85 16 L 84 17 L 82 17 L 81 18 L 79 18 Z M 176 191 L 177 191 L 179 193 L 179 195 L 177 197 L 175 197 L 173 195 L 173 194 Z M 128 167 L 128 195 L 127 196 L 127 198 L 125 199 L 121 203 L 121 204 L 118 208 L 118 211 L 117 212 L 117 224 L 115 228 L 111 231 L 105 231 L 104 230 L 102 230 L 101 229 L 99 229 L 97 228 L 92 223 L 91 223 L 90 221 L 80 211 L 79 211 L 77 209 L 73 207 L 68 206 L 64 204 L 59 200 L 58 200 L 52 193 L 52 191 L 50 188 L 50 182 L 51 181 L 53 181 L 57 179 L 60 176 L 66 173 L 70 173 L 71 174 L 73 173 L 77 173 L 78 174 L 80 173 L 93 173 L 94 174 L 95 173 L 106 173 L 107 172 L 109 172 L 113 170 L 122 162 L 125 162 L 127 164 L 127 166 Z M 84 187 L 82 188 L 78 192 L 77 194 L 77 200 L 78 201 L 78 203 L 82 207 L 84 208 L 87 208 L 88 209 L 93 208 L 97 205 L 99 201 L 99 195 L 98 194 L 98 192 L 94 188 L 92 187 Z M 87 194 L 91 196 L 91 199 L 89 201 L 85 199 L 85 197 Z M 165 156 L 167 156 L 169 158 L 169 161 L 168 162 L 165 162 L 163 159 Z M 194 134 L 204 125 L 205 125 L 209 122 L 229 122 L 230 123 L 230 139 L 229 140 L 229 143 L 228 145 L 224 148 L 220 146 L 205 146 L 194 135 Z M 118 105 L 118 151 L 113 157 L 112 157 L 105 163 L 102 163 L 101 164 L 62 164 L 61 165 L 59 165 L 57 166 L 51 171 L 47 173 L 45 173 L 44 172 L 42 172 L 32 162 L 29 156 L 29 154 L 28 153 L 28 150 L 27 149 L 28 142 L 30 139 L 40 139 L 41 138 L 44 138 L 48 136 L 52 132 L 53 132 L 64 121 L 66 121 L 67 120 L 95 120 L 96 119 L 99 119 L 103 117 L 105 115 L 106 115 L 117 104 Z M 77 132 L 72 137 L 71 139 L 71 145 L 73 149 L 75 151 L 79 153 L 86 153 L 88 152 L 91 149 L 93 145 L 93 140 L 92 139 L 92 137 L 88 133 L 86 132 L 84 132 L 83 131 L 81 131 L 80 132 Z M 79 141 L 81 139 L 82 139 L 85 142 L 85 143 L 83 145 L 81 145 L 79 143 Z M 64 86 L 66 84 L 68 84 L 70 86 L 70 89 L 69 90 L 66 90 Z M 90 65 L 91 64 L 94 64 L 96 66 L 96 67 L 94 69 L 91 69 L 90 68 Z M 164 56 L 166 56 L 168 59 L 166 62 L 164 62 L 162 60 L 162 58 Z M 114 26 L 116 28 L 117 30 L 117 32 L 118 33 L 118 88 L 117 90 L 103 104 L 102 104 L 101 106 L 100 106 L 97 109 L 95 110 L 67 110 L 66 111 L 62 111 L 58 113 L 42 128 L 40 128 L 39 129 L 28 129 L 24 125 L 23 123 L 23 101 L 24 100 L 24 97 L 27 91 L 32 86 L 38 89 L 55 89 L 57 91 L 57 93 L 62 98 L 72 98 L 76 95 L 78 91 L 78 84 L 76 80 L 74 78 L 72 77 L 70 77 L 69 76 L 64 76 L 56 80 L 54 79 L 40 79 L 37 76 L 36 73 L 37 72 L 37 68 L 38 67 L 38 64 L 40 62 L 42 57 L 52 48 L 56 46 L 58 46 L 59 45 L 63 45 L 81 63 L 81 68 L 84 74 L 90 77 L 96 77 L 97 76 L 99 76 L 102 73 L 103 71 L 103 62 L 102 60 L 97 56 L 89 56 L 80 47 L 79 47 L 76 44 L 76 43 L 75 43 L 72 40 L 72 37 L 77 31 L 87 26 L 90 26 L 91 25 L 95 25 L 96 24 L 110 24 Z" fill="#000000" fill-rule="evenodd" clip-rule="evenodd"/>
  </g>
</svg>
